<svg xmlns="http://www.w3.org/2000/svg" xmlns:xlink="http://www.w3.org/1999/xlink" version="1.1" x="0px" y="0px" viewBox="0 0 50 62.5" enable-background="new 0 0 50 50" xml:space="preserve"><path d="M40.529,22.067c-2.705,0-4.913,2.064-5.194,4.697l-3.69-0.41c0.004-0.107,0.017-0.213,0.017-0.32  c0-2.614-1.179-4.955-3.024-6.531l5.598-8.174c0.476,0.202,0.998,0.315,1.547,0.315c2.188,0,3.967-1.779,3.967-3.966  s-1.779-3.966-3.967-3.966c-0.326,0-0.639,0.051-0.942,0.125c-0.006,0-0.01-0.006-0.016-0.006c-0.044,0-0.077,0.027-0.114,0.046  c-1.664,0.471-2.893,1.988-2.893,3.801c0,1.279,0.617,2.406,1.562,3.132l-5.537,8.085c-1.364-0.914-3.004-1.449-4.766-1.449  c-1.255,0-2.444,0.277-3.519,0.763L13.514,8.094c1.177-0.705,1.974-1.979,1.974-3.447c0-0.188-0.03-0.367-0.055-0.547  c0-0.004,0.004-0.007,0.004-0.011c0-0.007-0.007-0.011-0.008-0.018c-0.283-1.948-1.946-3.453-3.971-3.453  c-2.223,0-4.03,1.808-4.03,4.03s1.808,4.029,4.03,4.029c0.395,0,0.77-0.075,1.13-0.181l6.082,10.182  c-1.429,0.858-2.585,2.117-3.317,3.625l-2.735-1.262c0.022-0.152,0.047-0.305,0.047-0.462c0-1.728-1.405-3.132-3.131-3.132  c-1.727,0-3.132,1.405-3.132,3.132s1.405,3.131,3.132,3.131c1.212,0,2.254-0.7,2.773-1.71l2.65,1.221  c-0.012,0.029-0.036,0.052-0.036,0.086c0,0.013,0.012,0.021,0.014,0.032c-0.282,0.849-0.447,1.752-0.447,2.695  c0,2.682,1.236,5.076,3.168,6.652l-5.563,6.756c-0.831-0.658-1.868-1.07-3.01-1.07c-0.764,0-1.479,0.193-2.123,0.508  c-0.006,0-0.009-0.006-0.015-0.006c-0.091,0-0.157,0.055-0.203,0.125c-1.497,0.83-2.523,2.407-2.523,4.236  c0,2.682,2.182,4.863,4.864,4.863c2.682,0,4.864-2.182,4.864-4.863c0-1.18-0.438-2.246-1.139-3.09l5.66-6.877  c1.334,0.854,2.91,1.354,4.605,1.354c1.23,0,2.396-0.266,3.457-0.732l6.458,8.717c-0.724,0.721-1.173,1.713-1.173,2.813  c0,2.186,1.777,3.965,3.965,3.965s3.967-1.779,3.967-3.965c0-2.188-1.779-3.967-3.967-3.967c-0.729,0-1.404,0.213-1.991,0.557  l-6.36-8.586c2.168-1.281,3.721-3.484,4.121-6.07l3.776,0.42c0.233,2.682,2.465,4.797,5.204,4.797c2.895,0,5.25-2.354,5.25-5.25  C45.779,24.421,43.424,22.067,40.529,22.067z M32.997,8.667c0.005-0.021,0.023-0.035,0.023-0.057c0-0.082-0.043-0.146-0.102-0.193  c-0.059-0.226-0.098-0.459-0.101-0.702c0.111-0.027,0.202-0.114,0.202-0.235c0-0.106-0.073-0.18-0.164-0.219  c0.103-0.715,0.456-1.344,0.975-1.8c0.087-0.015,0.146-0.07,0.181-0.149c0.495-0.372,1.103-0.6,1.768-0.6  c1.539,0,2.793,1.182,2.938,2.684c-0.012,0.029-0.035,0.051-0.035,0.084c0,0.054,0.029,0.097,0.058,0.139  c0,0.021,0.006,0.04,0.006,0.06c0,0.711-0.263,1.356-0.682,1.868c-0.044-0.034-0.094-0.063-0.155-0.063  c-0.143,0-0.256,0.115-0.256,0.257c0,0.063,0.028,0.118,0.066,0.163c-0.521,0.455-1.195,0.741-1.94,0.741  c-0.717,0-1.365-0.266-1.879-0.691C33.984,9.91,34.05,9.839,34.05,9.74c0-0.142-0.115-0.257-0.258-0.257  c-0.104,0-0.177,0.071-0.216,0.16C33.323,9.36,33.127,9.031,32.997,8.667z M12.326,7.532c0.005-0.019,0.022-0.032,0.022-0.053  c0-0.142-0.115-0.257-0.256-0.257c-0.144,0-0.259,0.115-0.259,0.257c0,0.059,0.029,0.107,0.063,0.151  c-0.145,0.021-0.289,0.044-0.439,0.044c-0.071,0-0.139-0.016-0.209-0.021c0.043-0.046,0.072-0.106,0.072-0.174  c0-0.142-0.115-0.257-0.258-0.257c-0.142,0-0.257,0.115-0.257,0.257c0,0.053,0.029,0.094,0.056,0.135  c-0.205-0.041-0.402-0.102-0.59-0.182c-0.024-0.117-0.114-0.21-0.237-0.21c-0.033,0-0.056,0.024-0.085,0.035  c-0.316-0.183-0.593-0.42-0.824-0.701C9.2,6.511,9.26,6.443,9.26,6.349c0-0.142-0.115-0.258-0.257-0.258  c-0.062,0-0.113,0.029-0.158,0.066c-0.26-0.447-0.419-0.958-0.419-1.511c0-0.548,0.157-1.055,0.413-1.499  c0.045,0.039,0.1,0.068,0.165,0.068c0.142,0,0.257-0.115,0.257-0.257c0-0.098-0.064-0.168-0.145-0.211  c0.229-0.281,0.502-0.519,0.816-0.704c0.034,0.016,0.063,0.042,0.103,0.042c0.131,0,0.23-0.104,0.246-0.231  c0.187-0.079,0.384-0.138,0.588-0.178c-0.033,0.043-0.063,0.092-0.063,0.151c0,0.142,0.115,0.258,0.257,0.258  c0.143,0,0.258-0.116,0.258-0.258c0-0.077-0.037-0.141-0.09-0.188c0.076-0.006,0.149-0.023,0.227-0.023  c0.153,0,0.299,0.023,0.446,0.045c-0.04,0.045-0.069,0.101-0.069,0.166c0,0.142,0.115,0.258,0.259,0.258  c0.141,0,0.256-0.116,0.256-0.258c0-0.028-0.021-0.046-0.029-0.071c0.652,0.195,1.214,0.596,1.601,1.138  c-0.006,0.022-0.026,0.039-0.026,0.063c0,0.122,0.092,0.209,0.206,0.236c0.239,0.433,0.387,0.923,0.387,1.452  C14.485,6.011,13.571,7.155,12.326,7.532z M11.146,21.952c-0.029-0.011-0.051-0.035-0.084-0.035c-0.142,0-0.257,0.116-0.257,0.258  c0,0.029,0.022,0.049,0.031,0.075c-0.361,0.283-0.811,0.458-1.304,0.458c-0.503,0-0.959-0.182-1.324-0.474  c0.006-0.021,0.024-0.036,0.024-0.059c0-0.142-0.115-0.258-0.258-0.258c-0.025,0-0.042,0.02-0.064,0.027  c-0.313-0.371-0.51-0.844-0.51-1.366c0-0.645,0.294-1.217,0.749-1.609c0.003-0.003,0.006-0.005,0.01-0.008  c0.372-0.316,0.847-0.515,1.373-0.515c0.507,0,0.967,0.186,1.333,0.483c0.021,0.028,0.044,0.044,0.075,0.062  c0.44,0.391,0.723,0.954,0.723,1.587C11.662,21.104,11.463,21.58,11.146,21.952z M12.871,42.505c0,0.007-0.007,0.011-0.007,0.018  c0,0.012,0.011,0.018,0.012,0.029c0.04,0.222,0.069,0.448,0.069,0.683c0,0.101-0.022,0.195-0.03,0.294  c-0.023,0.039-0.051,0.075-0.051,0.124c0,0.029,0.022,0.049,0.031,0.075c-0.095,0.733-0.392,1.397-0.839,1.942  c-0.124,0.021-0.222,0.115-0.222,0.242c0,0.007,0.007,0.011,0.007,0.019c-0.44,0.45-0.993,0.778-1.608,0.972  c-0.046-0.066-0.112-0.118-0.199-0.118c-0.137,0-0.243,0.109-0.252,0.243c-0.175,0.031-0.355,0.046-0.537,0.054  c0.002-0.015,0.016-0.023,0.016-0.039c0-0.142-0.115-0.258-0.257-0.258c-0.143,0-0.258,0.116-0.258,0.258  c0,0.009,0.008,0.014,0.009,0.022C8.57,47.049,8.386,47.031,8.21,46.99c-0.027-0.113-0.114-0.206-0.236-0.206  c-0.071,0-0.135,0.029-0.182,0.076c-1.496-0.533-2.575-1.949-2.575-3.626c0-0.65,0.177-1.255,0.462-1.793  c0.025,0.115,0.113,0.208,0.236,0.208c0.142,0,0.257-0.116,0.257-0.258c0-0.143-0.115-0.259-0.257-0.259  c-0.035,0-0.059,0.024-0.089,0.037c0.237-0.372,0.539-0.692,0.884-0.964c-0.005,0.021-0.022,0.033-0.022,0.055  c0,0.143,0.115,0.258,0.258,0.258c0.141,0,0.256-0.115,0.256-0.258c0-0.136-0.108-0.241-0.24-0.25  c0.584-0.385,1.278-0.611,2.023-0.63c0.007,0.001,0.011,0.008,0.019,0.008c0.012,0,0.019-0.011,0.03-0.013  c0.017,0,0.032-0.005,0.048-0.005C10.962,39.371,12.528,40.723,12.871,42.505z M38.746,45.416c0,0.155-0.022,0.305-0.046,0.454  c-0.003,0.016-0.018,0.025-0.018,0.042c0,0.01,0.01,0.016,0.011,0.025c-0.168,0.937-0.776,1.714-1.604,2.125  c-0.042-0.082-0.111-0.147-0.21-0.147c-0.143,0-0.256,0.116-0.256,0.259c0,0.024,0.02,0.04,0.025,0.062  c-0.198,0.062-0.403,0.102-0.617,0.12c0.047-0.047,0.076-0.111,0.076-0.182c0-0.143-0.117-0.259-0.258-0.259  s-0.258,0.116-0.258,0.259c0,0.089,0.053,0.154,0.122,0.2c-0.234-0.005-0.46-0.042-0.678-0.099c0.016-0.033,0.042-0.063,0.042-0.102  c0-0.143-0.115-0.259-0.256-0.259c-0.123,0-0.213,0.094-0.239,0.209c-0.833-0.369-1.46-1.11-1.679-2.013  c0.065-0.047,0.115-0.112,0.115-0.199c0-0.111-0.08-0.189-0.179-0.225c-0.008-0.091-0.027-0.179-0.027-0.271  c0-0.143,0.022-0.278,0.042-0.415c0.091-0.04,0.164-0.113,0.164-0.22c0-0.072-0.03-0.137-0.077-0.183  c0.249-0.864,0.869-1.571,1.688-1.917c0.047,0.057,0.112,0.098,0.192,0.098c0.132,0,0.233-0.105,0.247-0.234  c0.176-0.044,0.358-0.068,0.546-0.079c-0.005,0.021-0.023,0.034-0.023,0.057c0,0.142,0.117,0.257,0.258,0.257  s0.258-0.115,0.258-0.257c0-0.017-0.015-0.026-0.018-0.042c0.194,0.021,0.382,0.059,0.563,0.115  c0.033,0.102,0.112,0.184,0.226,0.184c0.052,0,0.091-0.028,0.131-0.055c0.359,0.166,0.678,0.4,0.943,0.688  c-0.017-0.003-0.027-0.019-0.045-0.019c-0.143,0-0.256,0.115-0.256,0.258c0,0.142,0.113,0.257,0.256,0.257  c0.14,0,0.245-0.109,0.253-0.244C38.524,44.157,38.746,44.759,38.746,45.416z M28.78,31.016c-0.041-0.027-0.083-0.056-0.135-0.056  c-0.143,0-0.258,0.114-0.258,0.257c0,0.062,0.029,0.114,0.065,0.158c-0.258,0.261-0.54,0.496-0.834,0.717  c-0.001,0-0.002-0.001-0.003-0.001c-0.107,0-0.183,0.075-0.221,0.169c-0.805,0.561-1.722,0.969-2.71,1.184  c-0.02-0.122-0.113-0.222-0.242-0.222c-0.144,0-0.257,0.116-0.257,0.258c0,0.018,0.015,0.029,0.019,0.046  c-0.191,0.028-0.384,0.052-0.579,0.065c0.019-0.036,0.046-0.067,0.046-0.111c0-0.142-0.114-0.258-0.256-0.258  c-0.144,0-0.258,0.116-0.258,0.258c0,0.052,0.028,0.092,0.055,0.133c-0.047,0.001-0.093,0.007-0.14,0.007  c-0.162,0-0.319-0.015-0.479-0.024c0.021-0.037,0.048-0.07,0.048-0.115c0-0.142-0.116-0.258-0.258-0.258  c-0.143,0-0.258,0.116-0.258,0.258c0,0.031,0.023,0.052,0.033,0.079c-0.185-0.022-0.368-0.049-0.548-0.084  c-0.003-0.139-0.115-0.253-0.256-0.253c-0.097,0-0.166,0.062-0.209,0.14c-0.654-0.172-1.273-0.426-1.846-0.756  c0.141-0.002,0.253-0.116,0.253-0.257c0-0.142-0.114-0.258-0.258-0.258c-0.142,0-0.256,0.116-0.256,0.258  c0,0.052,0.028,0.092,0.054,0.132c-0.61-0.378-1.162-0.839-1.641-1.369c-0.022-0.045-0.049-0.076-0.093-0.102  c-0.471-0.539-0.865-1.145-1.169-1.802c0.007,0.001,0.012,0.008,0.019,0.008c0.141,0,0.256-0.116,0.256-0.258  c0-0.143-0.115-0.259-0.256-0.259c-0.082,0-0.146,0.043-0.194,0.102c-0.338-0.858-0.53-1.79-0.53-2.768  c0-0.938,0.179-1.833,0.492-2.664c0.032,0.107,0.115,0.193,0.233,0.193c0.141,0,0.256-0.115,0.256-0.257  c0-0.143-0.115-0.257-0.256-0.257c-0.053,0-0.094,0.029-0.135,0.056c0.278-0.664,0.65-1.277,1.096-1.83  c0.024,0.008,0.041,0.028,0.067,0.028c0.143,0,0.258-0.116,0.258-0.258c0-0.037-0.025-0.063-0.04-0.095  c0.251-0.278,0.517-0.542,0.807-0.78c0.002,0,0.002,0.002,0.004,0.002c0.108,0,0.184-0.076,0.222-0.171  c0.532-0.405,1.115-0.744,1.743-0.998c0.031,0.014,0.057,0.039,0.093,0.039c0.103,0,0.173-0.067,0.216-0.152  c0.192-0.068,0.388-0.128,0.588-0.182c-0.009,0.026-0.031,0.046-0.031,0.076c0,0.142,0.114,0.258,0.258,0.258  c0.143,0,0.258-0.116,0.258-0.258c0-0.071-0.029-0.135-0.075-0.181c0.496-0.102,1.009-0.156,1.535-0.156  c0.438,0,0.864,0.045,1.281,0.117c-0.094,0.039-0.168,0.113-0.168,0.221c0,0.142,0.113,0.258,0.257,0.258  c0.143,0,0.257-0.116,0.257-0.258c0-0.069-0.029-0.13-0.072-0.176c0.228,0.047,0.453,0.105,0.673,0.173  c0,0.001-0.001,0.001-0.001,0.002c0,0.142,0.115,0.258,0.258,0.258c0.08,0,0.145-0.042,0.192-0.099  c0.588,0.223,1.143,0.513,1.651,0.868c-0.017,0.034-0.043,0.063-0.043,0.104c0,0.143,0.115,0.257,0.258,0.257  c0.067,0,0.127-0.029,0.173-0.071c0.277,0.221,0.537,0.461,0.781,0.718c-0.102,0.035-0.183,0.113-0.183,0.226  c0,0.142,0.115,0.258,0.258,0.258c0.104,0,0.177-0.072,0.218-0.162c0.229,0.271,0.437,0.56,0.626,0.861  c-0.043,0.046-0.072,0.106-0.072,0.174c0,0.142,0.117,0.257,0.256,0.257c0.024,0,0.04-0.02,0.063-0.026  c0.333,0.61,0.58,1.271,0.736,1.967c-0.006,0.022-0.025,0.038-0.025,0.062c0,0.072,0.029,0.136,0.077,0.183  c0.045,0.237,0.079,0.478,0.102,0.723c-0.099,0.036-0.179,0.114-0.179,0.225c0,0.121,0.09,0.207,0.202,0.234  c0.002,0.078,0.012,0.154,0.012,0.232c0,0.146-0.014,0.289-0.021,0.434c-0.106,0.031-0.192,0.113-0.192,0.229  c0,0.104,0.07,0.176,0.158,0.217c-0.123,1.063-0.47,2.057-0.987,2.94c-0.109,0.028-0.2,0.114-0.2,0.234  c0,0.021,0.019,0.036,0.023,0.057C29.241,30.451,29.021,30.741,28.78,31.016z M42.271,31.182c-0.02-0.123-0.116-0.222-0.245-0.222  c-0.141,0-0.256,0.114-0.256,0.257c0,0.049,0.028,0.086,0.052,0.125c-0.41,0.133-0.839,0.223-1.293,0.223  c-0.483,0-0.94-0.099-1.374-0.248c0.016-0.033,0.041-0.061,0.041-0.1c0-0.143-0.115-0.257-0.256-0.257  c-0.113,0-0.192,0.081-0.227,0.182c-0.877-0.417-1.584-1.122-2.005-1.997c0.046,0.042,0.104,0.071,0.171,0.071  c0.143,0,0.256-0.116,0.256-0.258c0-0.143-0.113-0.259-0.256-0.259s-0.256,0.116-0.256,0.259c0,0.047,0.027,0.082,0.049,0.12  c-0.247-0.538-0.394-1.131-0.394-1.762c0-0.607,0.133-1.183,0.363-1.705c0.023,0.118,0.112,0.213,0.237,0.213  c0.143,0,0.256-0.115,0.256-0.258c0-0.142-0.113-0.258-0.256-0.258c-0.037,0-0.063,0.025-0.095,0.04  c0.435-0.822,1.119-1.485,1.966-1.878c0.047,0.055,0.111,0.093,0.189,0.093c0.141,0,0.256-0.115,0.256-0.257  c0-0.001-0.001-0.002-0.001-0.003c0.19-0.063,0.382-0.124,0.584-0.16c-0.038,0.045-0.067,0.099-0.067,0.163  c0,0.142,0.115,0.257,0.258,0.257c0.141,0,0.256-0.115,0.256-0.257c0-0.085-0.048-0.15-0.11-0.197  c0.138-0.014,0.272-0.042,0.414-0.042c0.116,0,0.227,0.025,0.341,0.035c-0.073,0.045-0.131,0.112-0.131,0.204  c0,0.142,0.117,0.257,0.26,0.257c0.139,0,0.256-0.115,0.256-0.257c0-0.067-0.029-0.127-0.072-0.173  c0.206,0.032,0.404,0.083,0.6,0.144c-0.001,0.011-0.012,0.018-0.012,0.029c0,0.142,0.115,0.257,0.256,0.257  c0.094,0,0.162-0.058,0.208-0.133c1.495,0.659,2.545,2.15,2.545,3.887C44.779,29.038,43.746,30.515,42.271,31.182z"/><circle cx="36.88" cy="5.218" r="0.258"/><circle cx="35.851" cy="5.218" r="0.258"/><circle cx="34.823" cy="5.218" r="0.258"/><circle cx="37.909" cy="6.348" r="0.258"/><circle cx="36.88" cy="6.348" r="0.258"/><circle cx="35.851" cy="6.348" r="0.258"/><circle cx="34.823" cy="6.348" r="0.258"/><circle cx="33.792" cy="6.348" r="0.258"/><circle cx="37.909" cy="7.479" r="0.258"/><circle cx="36.88" cy="7.479" r="0.258"/><circle cx="35.851" cy="7.479" r="0.258"/><circle cx="34.823" cy="7.479" r="0.258"/><circle cx="33.792" cy="7.479" r="0.258"/><circle cx="37.909" cy="8.609" r="0.258"/><circle cx="36.88" cy="8.609" r="0.258"/><circle cx="35.851" cy="8.609" r="0.258"/><circle cx="34.823" cy="8.609" r="0.258"/><circle cx="33.792" cy="8.609" r="0.258"/><circle cx="36.88" cy="9.74" r="0.258"/><circle cx="35.851" cy="9.74" r="0.258"/><circle cx="34.823" cy="9.74" r="0.258"/><circle cx="25.558" cy="19.914" r="0.258"/><circle cx="26.587" cy="19.914" r="0.258"/><circle cx="25.558" cy="21.045" r="0.258"/><circle cx="26.587" cy="21.045" r="0.258"/><circle cx="27.616" cy="21.045" r="0.258"/><circle cx="25.558" cy="23.305" r="0.257"/><circle cx="26.587" cy="23.305" r="0.257"/><path d="M29.673,23.563c0.145,0,0.26-0.115,0.26-0.257c0-0.143-0.115-0.257-0.26-0.257c-0.139,0-0.256,0.115-0.256,0.257  C29.417,23.448,29.534,23.563,29.673,23.563z"/><circle cx="28.646" cy="23.305" r="0.257"/><circle cx="27.616" cy="23.305" r="0.257"/><circle cx="25.558" cy="24.435" r="0.258"/><circle cx="26.587" cy="24.435" r="0.258"/><path d="M43.056,24.177c-0.143,0-0.256,0.116-0.256,0.258c0,0.143,0.113,0.258,0.256,0.258c0.145,0,0.258-0.115,0.258-0.258  C43.313,24.293,43.2,24.177,43.056,24.177z"/><circle cx="42.026" cy="24.435" r="0.258"/><path d="M40.999,24.177c-0.143,0-0.26,0.116-0.26,0.258c0,0.143,0.117,0.258,0.26,0.258c0.139,0,0.256-0.115,0.256-0.258  C41.255,24.293,41.138,24.177,40.999,24.177z"/><circle cx="39.97" cy="24.435" r="0.258"/><circle cx="38.94" cy="24.435" r="0.258"/><path d="M37.909,24.177c-0.143,0-0.256,0.116-0.256,0.258c0,0.143,0.113,0.258,0.256,0.258c0.145,0,0.258-0.115,0.258-0.258  C38.167,24.293,38.054,24.177,37.909,24.177z"/><path d="M29.673,24.693c0.145,0,0.26-0.115,0.26-0.258c0-0.142-0.115-0.258-0.26-0.258c-0.139,0-0.256,0.116-0.256,0.258  C29.417,24.578,29.534,24.693,29.673,24.693z"/><circle cx="28.646" cy="24.435" r="0.258"/><circle cx="27.616" cy="24.435" r="0.258"/><circle cx="25.558" cy="25.566" r="0.258"/><circle cx="26.587" cy="25.566" r="0.258"/><circle cx="44.085" cy="25.566" r="0.258"/><path d="M43.056,25.309c-0.143,0-0.256,0.116-0.256,0.258c0,0.143,0.113,0.258,0.256,0.258c0.145,0,0.258-0.115,0.258-0.258  C43.313,25.425,43.2,25.309,43.056,25.309z"/><circle cx="42.026" cy="25.566" r="0.258"/><path d="M40.999,25.309c-0.143,0-0.26,0.116-0.26,0.258c0,0.143,0.117,0.258,0.26,0.258c0.139,0,0.256-0.115,0.256-0.258  C41.255,25.425,41.138,25.309,40.999,25.309z"/><circle cx="39.97" cy="25.566" r="0.258"/><circle cx="38.94" cy="25.566" r="0.258"/><path d="M37.909,25.309c-0.143,0-0.256,0.116-0.256,0.258c0,0.143,0.113,0.258,0.256,0.258c0.145,0,0.258-0.115,0.258-0.258  C38.167,25.425,38.054,25.309,37.909,25.309z"/><path d="M29.673,25.824c0.145,0,0.26-0.115,0.26-0.258c0-0.142-0.115-0.258-0.26-0.258c-0.139,0-0.256,0.116-0.256,0.258  C29.417,25.709,29.534,25.824,29.673,25.824z"/><circle cx="28.646" cy="25.566" r="0.258"/><circle cx="27.616" cy="25.566" r="0.258"/><circle cx="25.558" cy="26.697" r="0.257"/><circle cx="26.587" cy="26.697" r="0.257"/><circle cx="44.085" cy="26.697" r="0.257"/><path d="M43.056,26.439c-0.143,0-0.256,0.115-0.256,0.257c0,0.143,0.113,0.258,0.256,0.258c0.145,0,0.258-0.115,0.258-0.258  C43.313,26.555,43.2,26.439,43.056,26.439z"/><circle cx="42.026" cy="26.697" r="0.257"/><path d="M40.999,26.439c-0.143,0-0.26,0.115-0.26,0.257c0,0.143,0.117,0.258,0.26,0.258c0.139,0,0.256-0.115,0.256-0.258  C41.255,26.555,41.138,26.439,40.999,26.439z"/><circle cx="39.97" cy="26.697" r="0.257"/><circle cx="38.94" cy="26.697" r="0.257"/><path d="M37.909,26.439c-0.143,0-0.256,0.115-0.256,0.257c0,0.143,0.113,0.258,0.256,0.258c0.145,0,0.258-0.115,0.258-0.258  C38.167,26.555,38.054,26.439,37.909,26.439z"/><circle cx="36.88" cy="26.697" r="0.257"/><path d="M29.673,26.954c0.145,0,0.26-0.115,0.26-0.258c0-0.142-0.115-0.257-0.26-0.257c-0.139,0-0.256,0.115-0.256,0.257  C29.417,26.839,29.534,26.954,29.673,26.954z"/><circle cx="28.646" cy="26.697" r="0.257"/><circle cx="27.616" cy="26.697" r="0.257"/><circle cx="25.558" cy="27.826" r="0.258"/><circle cx="26.587" cy="27.826" r="0.258"/><circle cx="44.085" cy="27.826" r="0.258"/><path d="M43.056,27.568c-0.143,0-0.256,0.115-0.256,0.257c0,0.143,0.113,0.259,0.256,0.259c0.145,0,0.258-0.116,0.258-0.259  C43.313,27.684,43.2,27.568,43.056,27.568z"/><circle cx="42.026" cy="27.826" r="0.258"/><path d="M40.999,27.568c-0.143,0-0.26,0.115-0.26,0.257c0,0.143,0.117,0.259,0.26,0.259c0.139,0,0.256-0.116,0.256-0.259  C41.255,27.684,41.138,27.568,40.999,27.568z"/><circle cx="39.97" cy="27.826" r="0.258"/><circle cx="38.94" cy="27.826" r="0.258"/><path d="M37.909,27.568c-0.143,0-0.256,0.115-0.256,0.257c0,0.143,0.113,0.259,0.256,0.259c0.145,0,0.258-0.116,0.258-0.259  C38.167,27.684,38.054,27.568,37.909,27.568z"/><circle cx="36.88" cy="27.826" r="0.258"/><path d="M29.673,28.084c0.145,0,0.26-0.116,0.26-0.259c0-0.142-0.115-0.257-0.26-0.257c-0.139,0-0.256,0.115-0.256,0.257  C29.417,27.968,29.534,28.084,29.673,28.084z"/><circle cx="28.646" cy="27.826" r="0.258"/><circle cx="27.616" cy="27.826" r="0.258"/><circle cx="25.558" cy="28.958" r="0.258"/><circle cx="26.587" cy="28.958" r="0.258"/><circle cx="44.085" cy="28.958" r="0.258"/><path d="M43.056,28.699c-0.143,0-0.256,0.116-0.256,0.259c0,0.142,0.113,0.258,0.256,0.258c0.145,0,0.258-0.116,0.258-0.258  C43.313,28.815,43.2,28.699,43.056,28.699z"/><circle cx="42.026" cy="28.958" r="0.258"/><path d="M40.999,28.699c-0.143,0-0.26,0.116-0.26,0.259c0,0.142,0.117,0.258,0.26,0.258c0.139,0,0.256-0.116,0.256-0.258  C41.255,28.815,41.138,28.699,40.999,28.699z"/><circle cx="39.97" cy="28.958" r="0.258"/><circle cx="38.94" cy="28.958" r="0.258"/><path d="M37.909,28.699c-0.143,0-0.256,0.116-0.256,0.259c0,0.142,0.113,0.258,0.256,0.258c0.145,0,0.258-0.116,0.258-0.258  C38.167,28.815,38.054,28.699,37.909,28.699z"/><path d="M29.673,29.216c0.145,0,0.26-0.116,0.26-0.258c0-0.143-0.115-0.259-0.26-0.259c-0.139,0-0.256,0.116-0.256,0.259  C29.417,29.1,29.534,29.216,29.673,29.216z"/><circle cx="28.646" cy="28.958" r="0.258"/><circle cx="27.616" cy="28.958" r="0.258"/><circle cx="25.558" cy="30.087" r="0.257"/><circle cx="26.587" cy="30.087" r="0.257"/><path d="M43.056,29.83c-0.143,0-0.256,0.115-0.256,0.258c0,0.142,0.113,0.257,0.256,0.257c0.145,0,0.258-0.115,0.258-0.257  C43.313,29.945,43.2,29.83,43.056,29.83z"/><circle cx="42.026" cy="30.087" r="0.257"/><path d="M40.999,29.83c-0.143,0-0.26,0.115-0.26,0.258c0,0.142,0.117,0.257,0.26,0.257c0.139,0,0.256-0.115,0.256-0.257  C41.255,29.945,41.138,29.83,40.999,29.83z"/><circle cx="39.97" cy="30.087" r="0.257"/><circle cx="38.94" cy="30.087" r="0.257"/><path d="M37.909,29.83c-0.143,0-0.256,0.115-0.256,0.258c0,0.142,0.113,0.257,0.256,0.257c0.145,0,0.258-0.115,0.258-0.257  C38.167,29.945,38.054,29.83,37.909,29.83z"/><circle cx="28.646" cy="30.087" r="0.257"/><circle cx="27.616" cy="30.087" r="0.257"/><circle cx="25.558" cy="31.217" r="0.257"/><circle cx="26.587" cy="31.217" r="0.257"/><path d="M40.999,30.96c-0.143,0-0.26,0.114-0.26,0.257c0,0.142,0.117,0.258,0.26,0.258c0.139,0,0.256-0.116,0.256-0.258  C41.255,31.074,41.138,30.96,40.999,30.96z"/><circle cx="39.97" cy="31.217" r="0.257"/><circle cx="27.616" cy="31.217" r="0.257"/><circle cx="25.558" cy="32.349" r="0.258"/><circle cx="26.587" cy="32.349" r="0.258"/><circle cx="25.558" cy="22.175" r="0.258"/><circle cx="26.587" cy="22.175" r="0.258"/><circle cx="28.646" cy="22.175" r="0.258"/><circle cx="27.616" cy="22.175" r="0.258"/><circle cx="36.88" cy="43.652" r="0.257"/><circle cx="35.851" cy="43.652" r="0.257"/><path d="M34.823,43.395c-0.143,0-0.26,0.115-0.26,0.258c0,0.142,0.117,0.257,0.26,0.257c0.141,0,0.256-0.115,0.256-0.257  C35.079,43.51,34.964,43.395,34.823,43.395z"/><circle cx="33.792" cy="43.652" r="0.257"/><path d="M37.909,44.524c-0.143,0-0.256,0.114-0.256,0.257s0.113,0.258,0.256,0.258c0.145,0,0.258-0.115,0.258-0.258  S38.054,44.524,37.909,44.524z"/><circle cx="36.88" cy="44.782" r="0.257"/><circle cx="35.851" cy="44.782" r="0.257"/><path d="M34.823,44.524c-0.143,0-0.26,0.114-0.26,0.257s0.117,0.258,0.26,0.258c0.141,0,0.256-0.115,0.256-0.258  S34.964,44.524,34.823,44.524z"/><circle cx="33.792" cy="44.782" r="0.257"/><path d="M37.909,45.655c-0.143,0-0.256,0.115-0.256,0.257c0,0.143,0.113,0.258,0.256,0.258c0.145,0,0.258-0.115,0.258-0.258  C38.167,45.771,38.054,45.655,37.909,45.655z"/><circle cx="36.88" cy="45.913" r="0.257"/><circle cx="35.851" cy="45.913" r="0.257"/><path d="M34.823,45.655c-0.143,0-0.26,0.115-0.26,0.257c0,0.143,0.117,0.258,0.26,0.258c0.141,0,0.256-0.115,0.256-0.258  C35.079,45.771,34.964,45.655,34.823,45.655z"/><circle cx="33.792" cy="45.913" r="0.257"/><path d="M37.909,46.784c-0.143,0-0.256,0.116-0.256,0.258c0,0.143,0.113,0.259,0.256,0.259c0.145,0,0.258-0.116,0.258-0.259  C38.167,46.9,38.054,46.784,37.909,46.784z"/><circle cx="36.88" cy="47.042" r="0.258"/><circle cx="35.851" cy="47.042" r="0.258"/><path d="M34.823,46.784c-0.143,0-0.26,0.116-0.26,0.258c0,0.143,0.117,0.259,0.26,0.259c0.141,0,0.256-0.116,0.256-0.259  C35.079,46.9,34.964,46.784,34.823,46.784z"/><circle cx="33.792" cy="47.042" r="0.258"/><circle cx="14.15" cy="4.088" r="0.258"/><circle cx="13.121" cy="4.088" r="0.258"/><circle cx="12.092" cy="4.088" r="0.258"/><circle cx="11.062" cy="4.088" r="0.258"/><circle cx="10.033" cy="4.088" r="0.258"/><circle cx="9.003" cy="4.088" r="0.258"/><circle cx="14.15" cy="5.218" r="0.258"/><circle cx="13.121" cy="5.218" r="0.258"/><circle cx="12.092" cy="5.218" r="0.258"/><circle cx="11.062" cy="5.218" r="0.258"/><circle cx="10.033" cy="5.218" r="0.258"/><circle cx="9.003" cy="5.218" r="0.258"/><circle cx="13.121" cy="6.348" r="0.258"/><circle cx="12.092" cy="6.348" r="0.258"/><circle cx="11.062" cy="6.348" r="0.258"/><circle cx="10.033" cy="6.348" r="0.258"/><circle cx="23.416" cy="18.784" r="0.258"/><circle cx="22.385" cy="18.784" r="0.258"/><circle cx="10.033" cy="18.784" r="0.258"/><circle cx="9.003" cy="18.784" r="0.258"/><circle cx="23.416" cy="19.914" r="0.258"/><circle cx="22.385" cy="19.914" r="0.258"/><circle cx="21.355" cy="19.914" r="0.258"/><path d="M20.325,19.656c-0.141,0-0.256,0.116-0.256,0.258c0,0.143,0.115,0.257,0.256,0.257c0.145,0,0.26-0.115,0.26-0.257  C20.585,19.772,20.47,19.656,20.325,19.656z"/><circle cx="19.296" cy="19.914" r="0.258"/><circle cx="11.062" cy="19.914" r="0.257"/><circle cx="10.033" cy="19.914" r="0.258"/><circle cx="9.003" cy="19.914" r="0.258"/><circle cx="7.974" cy="19.914" r="0.258"/><circle cx="24.443" cy="19.914" r="0.258"/><circle cx="13.121" cy="2.957" r="0.258"/><circle cx="12.092" cy="2.957" r="0.258"/><circle cx="11.062" cy="2.957" r="0.258"/><circle cx="10.033" cy="2.957" r="0.258"/><circle cx="23.416" cy="21.045" r="0.258"/><circle cx="22.385" cy="21.045" r="0.258"/><circle cx="21.355" cy="21.045" r="0.258"/><path d="M20.325,20.787c-0.141,0-0.256,0.115-0.256,0.257s0.115,0.258,0.256,0.258c0.145,0,0.26-0.116,0.26-0.258  S20.47,20.787,20.325,20.787z"/><circle cx="19.296" cy="21.045" r="0.258"/><circle cx="18.268" cy="21.045" r="0.258"/><circle cx="11.062" cy="21.045" r="0.258"/><circle cx="10.033" cy="21.045" r="0.258"/><circle cx="9.003" cy="21.045" r="0.258"/><circle cx="7.974" cy="21.045" r="0.258"/><circle cx="24.443" cy="21.045" r="0.258"/><circle cx="23.416" cy="23.305" r="0.257"/><circle cx="22.385" cy="23.305" r="0.257"/><circle cx="21.355" cy="23.305" r="0.257"/><path d="M20.325,23.048c-0.141,0-0.256,0.115-0.256,0.257c0,0.142,0.115,0.257,0.256,0.257c0.145,0,0.26-0.115,0.26-0.257  C20.585,23.163,20.47,23.048,20.325,23.048z"/><circle cx="19.296" cy="23.305" r="0.257"/><circle cx="18.268" cy="23.305" r="0.257"/><circle cx="17.238" cy="23.305" r="0.257"/><circle cx="24.443" cy="23.305" r="0.257"/><circle cx="23.416" cy="24.435" r="0.258"/><circle cx="22.385" cy="24.435" r="0.258"/><circle cx="21.355" cy="24.435" r="0.258"/><path d="M20.325,24.177c-0.141,0-0.256,0.116-0.256,0.258c0,0.143,0.115,0.258,0.256,0.258c0.145,0,0.26-0.115,0.26-0.258  C20.585,24.293,20.47,24.177,20.325,24.177z"/><circle cx="19.296" cy="24.435" r="0.258"/><circle cx="18.268" cy="24.435" r="0.258"/><circle cx="17.238" cy="24.435" r="0.258"/><path d="M16.21,24.177c-0.143,0-0.26,0.116-0.26,0.258c0,0.143,0.117,0.258,0.26,0.258c0.141,0,0.256-0.115,0.256-0.258  C16.466,24.293,16.351,24.177,16.21,24.177z"/><circle cx="24.443" cy="24.435" r="0.258"/><circle cx="23.416" cy="25.566" r="0.258"/><circle cx="22.385" cy="25.566" r="0.258"/><circle cx="21.355" cy="25.566" r="0.258"/><path d="M20.325,25.309c-0.141,0-0.256,0.116-0.256,0.258c0,0.143,0.115,0.258,0.256,0.258c0.145,0,0.26-0.115,0.26-0.258  C20.585,25.425,20.47,25.309,20.325,25.309z"/><circle cx="19.296" cy="25.566" r="0.258"/><circle cx="18.268" cy="25.566" r="0.258"/><circle cx="17.238" cy="25.566" r="0.258"/><path d="M16.21,25.309c-0.143,0-0.26,0.116-0.26,0.258c0,0.143,0.117,0.258,0.26,0.258c0.141,0,0.256-0.115,0.256-0.258  C16.466,25.425,16.351,25.309,16.21,25.309z"/><circle cx="24.443" cy="25.566" r="0.258"/><circle cx="23.416" cy="26.697" r="0.257"/><circle cx="22.385" cy="26.697" r="0.257"/><circle cx="21.355" cy="26.697" r="0.257"/><path d="M20.325,26.439c-0.141,0-0.256,0.115-0.256,0.257c0,0.143,0.115,0.258,0.256,0.258c0.145,0,0.26-0.115,0.26-0.258  C20.585,26.555,20.47,26.439,20.325,26.439z"/><circle cx="19.296" cy="26.697" r="0.257"/><circle cx="18.268" cy="26.697" r="0.257"/><circle cx="17.238" cy="26.697" r="0.257"/><path d="M16.21,26.439c-0.143,0-0.26,0.115-0.26,0.257c0,0.143,0.117,0.258,0.26,0.258c0.141,0,0.256-0.115,0.256-0.258  C16.466,26.555,16.351,26.439,16.21,26.439z"/><circle cx="24.443" cy="26.697" r="0.257"/><circle cx="23.416" cy="27.826" r="0.258"/><circle cx="22.385" cy="27.826" r="0.258"/><circle cx="21.355" cy="27.826" r="0.258"/><path d="M20.325,27.568c-0.141,0-0.256,0.115-0.256,0.257c0,0.143,0.115,0.259,0.256,0.259c0.145,0,0.26-0.116,0.26-0.259  C20.585,27.684,20.47,27.568,20.325,27.568z"/><circle cx="19.296" cy="27.826" r="0.258"/><circle cx="18.268" cy="27.826" r="0.258"/><circle cx="17.238" cy="27.826" r="0.258"/><path d="M16.21,27.568c-0.143,0-0.26,0.115-0.26,0.257c0,0.143,0.117,0.259,0.26,0.259c0.141,0,0.256-0.116,0.256-0.259  C16.466,27.684,16.351,27.568,16.21,27.568z"/><circle cx="24.443" cy="27.826" r="0.258"/><circle cx="23.416" cy="28.958" r="0.258"/><circle cx="22.385" cy="28.958" r="0.258"/><circle cx="21.355" cy="28.958" r="0.258"/><path d="M20.325,28.699c-0.141,0-0.256,0.116-0.256,0.259c0,0.142,0.115,0.258,0.256,0.258c0.145,0,0.26-0.116,0.26-0.258  C20.585,28.815,20.47,28.699,20.325,28.699z"/><circle cx="19.296" cy="28.958" r="0.258"/><circle cx="18.268" cy="28.958" r="0.258"/><circle cx="17.238" cy="28.958" r="0.258"/><circle cx="24.443" cy="28.958" r="0.258"/><circle cx="23.416" cy="30.087" r="0.257"/><circle cx="22.385" cy="30.087" r="0.257"/><circle cx="21.355" cy="30.087" r="0.257"/><path d="M20.325,29.83c-0.141,0-0.256,0.115-0.256,0.258c0,0.142,0.115,0.257,0.256,0.257c0.145,0,0.26-0.115,0.26-0.257  C20.585,29.945,20.47,29.83,20.325,29.83z"/><circle cx="19.296" cy="30.087" r="0.257"/><circle cx="18.268" cy="30.087" r="0.257"/><circle cx="17.238" cy="30.087" r="0.257"/><circle cx="24.443" cy="30.087" r="0.257"/><circle cx="23.416" cy="31.217" r="0.257"/><circle cx="22.385" cy="31.217" r="0.257"/><circle cx="21.355" cy="31.217" r="0.257"/><path d="M20.325,30.96c-0.141,0-0.256,0.114-0.256,0.257c0,0.142,0.115,0.258,0.256,0.258c0.145,0,0.26-0.116,0.26-0.258  C20.585,31.074,20.47,30.96,20.325,30.96z"/><circle cx="19.296" cy="31.217" r="0.257"/><circle cx="18.268" cy="31.217" r="0.257"/><circle cx="24.443" cy="31.217" r="0.257"/><circle cx="23.416" cy="32.349" r="0.258"/><circle cx="22.385" cy="32.349" r="0.258"/><circle cx="21.355" cy="32.349" r="0.258"/><path d="M20.325,32.091c-0.141,0-0.256,0.116-0.256,0.258c0,0.143,0.115,0.259,0.256,0.259c0.145,0,0.26-0.116,0.26-0.259  C20.585,32.207,20.47,32.091,20.325,32.091z"/><circle cx="24.443" cy="32.349" r="0.258"/><circle cx="23.416" cy="22.175" r="0.258"/><circle cx="22.385" cy="22.175" r="0.258"/><circle cx="21.355" cy="22.175" r="0.258"/><path d="M20.325,21.917c-0.141,0-0.256,0.116-0.256,0.258s0.115,0.257,0.256,0.257c0.145,0,0.26-0.115,0.26-0.257  S20.47,21.917,20.325,21.917z"/><circle cx="19.296" cy="22.175" r="0.258"/><circle cx="18.268" cy="22.175" r="0.258"/><circle cx="17.238" cy="22.175" r="0.258"/><circle cx="10.033" cy="22.175" r="0.258"/><circle cx="9.003" cy="22.175" r="0.258"/><circle cx="24.443" cy="22.175" r="0.258"/><circle cx="11.062" cy="40.261" r="0.257"/><circle cx="10.033" cy="40.261" r="0.257"/><circle cx="9.003" cy="40.261" r="0.257"/><circle cx="7.974" cy="40.261" r="0.257"/><circle cx="12.092" cy="41.391" r="0.258"/><circle cx="11.062" cy="41.391" r="0.258"/><circle cx="10.033" cy="41.391" r="0.258"/><circle cx="9.003" cy="41.391" r="0.258"/><circle cx="7.974" cy="41.391" r="0.258"/><circle cx="6.945" cy="41.391" r="0.258"/><circle cx="12.092" cy="42.521" r="0.258"/><circle cx="11.062" cy="42.521" r="0.258"/><circle cx="10.033" cy="42.521" r="0.258"/><circle cx="9.003" cy="42.521" r="0.258"/><circle cx="7.974" cy="42.521" r="0.258"/><circle cx="6.945" cy="42.521" r="0.258"/><circle cx="5.915" cy="42.521" r="0.258"/><circle cx="12.092" cy="43.652" r="0.257"/><circle cx="11.062" cy="43.652" r="0.257"/><circle cx="10.033" cy="43.652" r="0.257"/><circle cx="9.003" cy="43.652" r="0.257"/><circle cx="7.974" cy="43.652" r="0.257"/><circle cx="6.945" cy="43.652" r="0.257"/><circle cx="5.915" cy="43.652" r="0.257"/><circle cx="12.092" cy="44.782" r="0.257"/><circle cx="11.062" cy="44.782" r="0.257"/><circle cx="10.033" cy="44.782" r="0.257"/><circle cx="9.003" cy="44.782" r="0.257"/><circle cx="7.974" cy="44.782" r="0.257"/><circle cx="6.945" cy="44.782" r="0.257"/><circle cx="5.915" cy="44.782" r="0.257"/><circle cx="11.062" cy="45.913" r="0.257"/><circle cx="10.033" cy="45.913" r="0.257"/><circle cx="9.003" cy="45.913" r="0.257"/><circle cx="7.974" cy="45.913" r="0.257"/><circle cx="6.945" cy="45.913" r="0.257"/><text x="0" y="65" fill="#000000" font-size="5px" font-weight="bold" font-family="'Helvetica Neue', Helvetica, Arial-Unicode, Arial, Sans-serif">Created by Mohamed Mbarki</text><text x="0" y="70" fill="#000000" font-size="5px" font-weight="bold" font-family="'Helvetica Neue', Helvetica, Arial-Unicode, Arial, Sans-serif">from the Noun Project</text></svg>