<svg width="500" height="500" viewBox="0 0 500 500" preserveAspectRatio="xMidYMid meet" xmlns="http://www.w3.org/2000/svg">
                        <g fill="none" fill-rule="evenodd">
                            <path class="polygon" fill="#FF7D4A" d="M299.5 349l60.5 24.8-56 78.4z"></path>
                            <path class="polygon" fill="#FFA92C" d="M299.5 349l139.3-38.4-78.8 63.2z"></path>
                            <path class="polygon" fill="#FF3F2E" d="M438.8 310.6l-40.1-42.4-99.2 80.9z"></path>
                            <path class="polygon" fill="#FF8332" d="M438.8 310.6l5.3-27.3-45.4-15.1z"></path>
                            <path class="polygon" fill="#FFA92C" d="M398.7 268.2L299.5 349l-11.6-50.8z"></path>
                            <path class="polygon" fill="#FF7D4A" d="M299.5 349l-11.6-50.7h-52.8z"></path>
                            <path class="polygon" fill="#FF3F2E" d="M398.7 268.2l67.8 23 31.9-55zM398.7 268.2l-17-73.1L288 298.3z"></path>
                            <path class="polygon" fill="#008892" d="M398.7 268.2L466 116.8l-84.4 78.3z"></path>
                            <path class="polygon" fill="#002A38" d="M398.7 268.2l99.7-32-69.3-36z"></path>
                            <path class="polygon" fill="#00CEC4" d="M429 200.3l69.4 36-8-92.3z"></path>
                            <path class="polygon" fill="#FF3F2E" d="M466.1 116.8l24.3 27.2-59.7 54.2z"></path>
                            <path class="polygon" fill="#00CEC4" d="M381.7 195l84.4-78.2-14.6-38.4z"></path>
                            <path class="polygon" fill="#008892" d="M381.7 195l69.8-116.6-100.6 7.3z"></path>
                            <path class="polygon" fill="#00CEC4" d="M381.7 195L288 298.4l-48.3-108.2z"></path>
                            <path class="polygon" fill="#8D0015" d="M288 298.3l-48.4-108.2-108.4 70.4z"></path>
                            <path class="polygon" fill="#00A8A8" d="M288 298.3l-156.8-37.8 6.2 37.8z"></path>
                            <path class="polygon" fill="#FF3F2E" d="M131.2 260.5l108.4-70.4v-93z"></path>
                            <path class="polygon" fill="#FF650A" d="M239.6 97.1v93l142.1 5z"></path>
                            <path class="polygon" fill="#FF8332" d="M381.7 195L239.6 97.2 299.4 66z"></path>
                            <path class="polygon" fill="#FFA92C" d="M299.4 66l51.5 19.7L381.7 195z"></path>
                            <path class="polygon" fill="#FF8332" d="M351 85.7l30.7-71.3 69.8 64z"></path>
                            <path class="polygon" fill="#002A38" d="M351 85.7l30.7-71.3-76.6-5.6z"></path>
                            <path class="polygon" fill="#008892" d="M351 85.7L299.3 0 293 64z"></path>
                            <path class="polygon" fill="#00CEC4" d="M299.4 0L131.2 5.7 293 64z"></path>
                            <path class="polygon" fill="#008892" d="M299.4 66L128.8 5l110.8 92.1z"></path>
                            <path class="polygon" fill="#002A38" d="M239.6 97.1l-110.8-92-23 115.4z"></path>
                            <path class="polygon" fill="#FF3100" d="M105.7 120.5l24.8 140.7 109-164z"></path>
                            <path class="polygon" fill="#8D0015" d="M130.2 260.8l-24.5-140.3L0 113z"></path>
                            <path class="polygon" fill="#00A8A8" d="M130.2 260.8L0 113l7 82z"></path>
                            <path class="polygon" fill="#002A38" d="M130.2 261.2L6.9 195l69.5 65.4z"></path>
                            <path class="polygon" fill="#008892" d="M0 113l105.7 7.5L128.8 5.1z"></path>
                        </g>
                    </svg>