<svg width="52px" height="53px" viewBox="0 0 52 53" version="1.1" xmlns="http://www.w3.org/2000/svg" xmlns:xlink="http://www.w3.org/1999/xlink">
    <g id="Page-1" stroke="none" stroke-width="1.4" fill="none" fill-rule="evenodd">
        <g id="noun_Cube-Stack_610223" fill-rule="nonzero">
            <path d="M51.5085743,29.806077 L38.9559835,22.4915791 L38.9559835,7.8639115 C38.9560287,7.79268686 38.9183967,7.72685544 38.8572789,7.69124313 L26.2059835,0.319631845 C26.1449049,0.284042344 26.0696529,0.284042344 26.0085743,0.319631845 L13.3572789,7.69124313 C13.2961611,7.72685544 13.2585291,7.79268686 13.2585743,7.8639115 L13.2585743,22.4929073 L0.705983532,29.806077 C0.644865739,29.8416893 0.607233702,29.9075207 0.607278949,29.9787454 L0.607278949,44.7219679 C0.607233702,44.7931926 0.644865739,44.859024 0.705983532,44.8946363 L13.3572789,52.2662476 C13.4183575,52.3018371 13.4936095,52.3018371 13.5546881,52.2662476 L26.1072789,44.9517497 L38.6598697,52.2662476 C38.7209483,52.3018371 38.7962003,52.3018371 38.8572789,52.2662476 L51.5085743,44.8946363 C51.5696921,44.859024 51.6073241,44.7931926 51.6072789,44.7219679 L51.6072789,29.9787454 C51.6073241,29.9075207 51.5696921,29.8416893 51.5085743,29.806077 Z" id="Shape" fill="#FFFFFF"></path>
            <polygon id="Path" stroke="#000000" points="25.9098697 15.3510778 25.9098697 29.6347368 13.6533927 22.4929073 13.6533927 8.20924825"></polygon>
            <polygon id="Path" stroke="#000000" points="38.5611651 22.4915791 26.3046881 29.6334086 26.3046881 15.3510778 38.5611651 8.20924825"></polygon>
            <polygon id="Path" stroke="#000000" points="13.4559835 22.8369158 25.7124606 29.9787454 13.4559835 37.1205749 1.19950645 29.9787454"></polygon>
            <polygon id="Path" stroke="#000000" points="13.6533927 37.4645834 25.9098697 30.3227539 25.9098697 44.6077412 13.6533927 51.7495707"></polygon>
            <polygon id="Path" stroke="#000000" points="26.3046881 30.3227539 38.5611651 37.4645834 38.5611651 51.7495707 26.3046881 44.6077412"></polygon>
            <polygon id="Path" stroke="#000000" points="38.7585743 37.1192467 26.5020972 29.9787454 38.7585743 22.8369158 51.0124192 29.9787454"></polygon>
            <polygon id="Path" stroke="#000000" points="26.1072789 0.726066629 38.363756 7.8639115 26.1072789 15.005741 13.8508018 7.8639115"></polygon>
            <polygon id="Path" stroke="#000000" points="1.00209728 30.3240821 13.2585743 37.4659116 13.2585743 51.7495707 1.00209728 44.6077412"></polygon>
            <polygon id="Path" stroke="#000000" points="38.9559835 51.7495707 38.9559835 37.4659116 51.2124605 30.3240821 51.2124605 44.6077412"></polygon>
        </g>
    </g>
</svg>