
<svg width="51px" height="52px" viewBox="0 0 51 52" version="1.1" xmlns="http://www.w3.org/2000/svg" xmlns:xlink="http://www.w3.org/1999/xlink">
    <defs>
        <linearGradient x1="50%" y1="0%" x2="50%" y2="100%" id="linearGradient-1">
            <stop stop-color="#0052FB" offset="0%"></stop>
            <stop stop-color="#6684FF" offset="100%"></stop>
        </linearGradient>
        <linearGradient x1="50%" y1="0%" x2="50%" y2="100%" id="linearGradient-2">
            <stop stop-color="#000CFF" offset="0%"></stop>
            <stop stop-color="#278FFF" offset="100%"></stop>
        </linearGradient>
        <linearGradient x1="50%" y1="0%" x2="50%" y2="100%" id="linearGradient-3">
            <stop stop-color="#EA4A4A" offset="0%"></stop>
            <stop stop-color="#FF4300" offset="100%"></stop>
        </linearGradient>
        <linearGradient x1="50%" y1="0%" x2="50%" y2="100%" id="linearGradient-4">
            <stop stop-color="#FF7878" offset="0%"></stop>
            <stop stop-color="#FF2F00" offset="100%"></stop>
        </linearGradient>
        <linearGradient x1="50%" y1="0%" x2="50%" y2="100%" id="linearGradient-5">
            <stop stop-color="#000CFF" offset="0%"></stop>
            <stop stop-color="#278FFF" offset="100%"></stop>
        </linearGradient>
        <linearGradient x1="50%" y1="0%" x2="50%" y2="70.6820101%" id="linearGradient-6">
            <stop stop-color="#FF3939" offset="0%"></stop>
            <stop stop-color="#FF6300" offset="100%"></stop>
        </linearGradient>
    </defs>
    <g id="Page-1" stroke="none" stroke-width="1" fill="none" fill-rule="evenodd">
        <g id="noun_Cube-Stack_610223" transform="translate(-1.000000, 0.000000)" fill-rule="nonzero">
            <polygon id="Path" fill="#00C140" points="25.9098697 15.3510778 25.9098697 29.6347368 13.6533927 22.4929073 13.6533927 8.20924825"></polygon>
            <polygon id="Path" fill="#05D960" points="38.5611651 22.4915791 26.3046881 29.6334086 26.3046881 15.3510778 38.5611651 8.20924825"></polygon>
            <polygon id="Path" fill="url(#linearGradient-1)" points="13.4559835 22.8369158 25.7124606 29.9787454 13.4559835 37.1205749 1.19950645 29.9787454"></polygon>
            <polygon id="Path" fill="url(#linearGradient-2)" points="13.6533927 37.4645834 25.9098697 30.3227539 25.9098697 44.6077412 13.6533927 51.7495707"></polygon>
            <polygon id="Path" fill="url(#linearGradient-3)" points="26.3046881 30.3227539 38.5611651 37.4645834 38.5611651 51.7495707 26.3046881 44.6077412"></polygon>
            <polygon id="Path" fill="url(#linearGradient-4)" points="38.7585743 37.1192467 26.5020972 29.9787454 38.7585743 22.8369158 51.0124192 29.9787454"></polygon>
            <polygon id="Path" fill="#16CC02" points="26.1072789 0.726066629 38.363756 7.8639115 26.1072789 15.005741 13.8508018 7.8639115"></polygon>
            <polygon id="Path" fill="url(#linearGradient-5)" points="1.00209728 30.3240821 13.2585743 37.4659116 13.2585743 51.7495707 1.00209728 44.6077412"></polygon>
            <polygon id="Path" fill="url(#linearGradient-6)" points="38.9559835 51.7495707 38.9559835 37.4659116 51.2124605 30.3240821 51.2124605 44.6077412"></polygon>
        </g>
    </g>
</svg>