<svg width="47px" height="40px" viewBox="0 0 47 40" version="1.1" xmlns="http://www.w3.org/2000/svg" xmlns:xlink="http://www.w3.org/1999/xlink">
    <defs>
        <linearGradient x1="100%" y1="19.2763387%" x2="0%" y2="80.7236613%" id="linearGradient-1">
            <stop stop-color="#FFFFFF" offset="0%"></stop>
            <stop stop-color="#FEFFFF" offset="100%"></stop>
        </linearGradient>
    </defs>
    <g id="Page-1" stroke="none" stroke-width="1" fill="none" fill-rule="evenodd">
        <g id="noun_Calendar_3397954" transform="translate(23.500000, 20.000000) scale(-1, 1) translate(-23.500000, -20.000000) ">
            <path d="M46.0747664,0.966789668 L12.2336449,0.966789668 C12.0747664,6.83763838 11.7570093,12.8671587 10.0093458,18.7380074 C9.02234154,22.4837389 6.05790043,27.8828428 1.11602246,34.9353191 L1.11598746,34.9352946 C0.799038012,35.3876082 0.908772316,36.0112191 1.36108589,36.3281685 C1.52925577,36.4460101 1.72962574,36.5092251 1.93497362,36.5092251 L12.2336449,36.5092251 L12.2336449,39 C12.2336449,39.5522847 12.6813601,40 13.2336449,40 L45.7102804,40 C46.2625651,40 46.7102804,39.5522847 46.7102804,39 L46.7102804,0.966789668 L46.0747664,0.966789668 Z" id="Path" fill="#000000"></path>
            <path d="M29.2336449,2.23616236 L13.5046729,2.23616236 C13.1869159,7.94833948 12.8691589,13.501845 11.2803738,19.0553506 C9.69158879,24.9261993 6.35514019,30.3210332 2.70093458,35.2398524 C7.46728972,35.2398524 12.2336449,35.2398524 17,35.2398524 C22.4018692,35.2398524 27.9626168,35.2398524 33.364486,35.2398524 C37.8130841,30.4797048 41.7850467,24.7675277 43.2149533,18.4206642 C44.4859813,13.0258303 44.6448598,7.63099631 44.8037383,2.23616236 L29.2336449,2.23616236 Z" id="Path" fill="url(#linearGradient-1)"></path>
        </g>
    </g>
</svg>