
<svg class="one" width="47px" height="52px" viewBox="0 0 47 52" version="1.1" xmlns="http://www.w3.org/2000/svg" xmlns:xlink="http://www.w3.org/1999/xlink">
    <g id="Page-1" stroke="none" stroke-width="1" fill="none" fill-rule="evenodd">
        <g id="noun_networking_1892011" transform="translate(-0.855932, 0.000000)" fill="#292929" fill-rule="nonzero">
            <path d="M1.40817719,38.9996188 C0.171202664,36.8961675 1.09582558,34.2323549 3.34833132,33.2709732 L3.34833132,18.7290268 C1.0934946,17.775269 0.175087634,15.0962085 1.40895418,12.9996188 C2.64903668,10.8915931 5.46020114,10.3472422 7.43842799,11.7858839 C11.7173342,9.3614638 15.9908015,6.93856845 20.2697077,4.51491071 C19.9845509,2.11641205 21.8827473,0 24.3566964,0 C26.8368614,0 28.7218489,2.11260006 28.4436851,4.51491071 C32.7233683,6.93856845 36.9960585,9.3614638 41.2749648,11.7858839 C43.2485296,10.3457174 46.066687,10.8961675 47.3044386,12.9996188 C48.5383051,15.0962085 47.6198981,17.775269 45.3650614,18.7290268 L45.3650614,33.2709732 C47.6198981,34.2239686 48.5383051,36.9030291 47.3044386,38.9996188 C46.067464,41.1015453 43.2469756,41.6565698 41.2749648,40.2141161 C36.9960585,42.6385362 32.7233683,45.0614315 28.4436851,47.4850893 C28.7272879,49.8843504 26.8314224,52 24.3559194,52 C21.8749774,52 19.9930978,49.8873999 20.2697077,47.4850893 C15.9908015,45.0614315 11.7173342,42.6385362 7.43842799,40.2141161 C5.46408611,41.655045 2.6467057,41.1038325 1.40817719,38.9996188 Z M26.5532585,7.45242354 L33.806498,19.7803712 L39.8561736,16.3534 C39.4606837,15.2136176 39.5927726,13.9892092 40.1825111,12.9897077 C36.0970764,10.6750726 32.0116417,8.36272469 27.926207,6.04808961 C27.5920996,6.61912442 27.1196872,7.10248365 26.5532585,7.45242354 Z M32.4102397,20.5709762 L25.1204815,8.18203677 L25.1204815,22.0317274 C26.0559824,22.204029 26.879596,22.6858634 27.4763275,23.3666833 L32.4102397,20.5709762 Z M34.5695061,21.0794945 L41.8204146,33.405155 C42.414815,33.0986717 43.076814,32.9393309 43.7489138,32.941618 L43.7489138,19.0576196 C42.5686598,19.0591444 41.4148237,18.562062 40.6199588,17.6525232 L34.5695061,21.0794945 L34.5695061,21.0794945 Z M40.465337,34.2590388 L33.1763558,21.8685746 L28.2408896,24.6642817 C28.5470253,25.5227399 28.5485793,26.4764977 28.2416666,27.3349559 L40.465337,34.2590388 Z M39.7971221,38.1335366 L25.1212585,38.1335366 L25.1212585,43.9940768 C26.3131674,44.2151717 27.3356915,44.9455473 27.926207,45.9519104 C32.0116417,43.6372753 36.0970764,41.3249274 40.1825111,39.0102923 C40.0185654,38.7327801 39.8888074,38.4392575 39.7971221,38.1335366 Z M25.1212585,36.5477524 L39.6479392,36.5477524 C39.682127,36.2427939 39.7497254,35.9416474 39.8561736,35.6458376 L27.4771045,28.6325543 C26.880373,29.3133742 26.0567593,29.795971 25.1212585,29.9682726 L25.1212585,36.5477524 Z M23.5929112,38.1335366 L8.91704766,38.1335366 C8.82458537,38.4392575 8.69482736,38.7327801 8.53088162,39.0102923 C12.6163163,41.3256898 16.702528,43.6380377 20.7879627,45.9519104 C21.3769242,44.9478345 22.3932324,44.2151717 23.5929112,43.9940768 L23.5929112,38.1335366 Z M9.06545352,36.5477524 L23.5929112,36.5477524 L23.5929112,29.9682726 C22.6574104,29.795971 21.8337967,29.3141366 21.2370653,28.6333167 L8.85721912,35.6466 C8.95900534,35.9446969 9.0297118,36.2466059 9.06545352,36.5477524 Z M6.89142418,33.4082046 L14.1438866,21.0802569 L8.09265698,17.6532856 C7.2939071,18.5742603 6.1447329,19.0614315 4.96447894,19.058382 L4.96447894,32.9423804 C5.62803186,32.9408556 6.29546974,33.1017213 6.89142418,33.4082046 L6.89142418,33.4082046 Z M15.5362599,21.869337 L8.2465018,34.261326 L20.4725031,27.3357183 C20.1663675,26.4772601 20.1655905,25.5242647 20.4717261,24.6650441 L15.5362599,21.869337 L15.5362599,21.869337 Z M14.9061178,19.7803712 C17.3241233,15.6710553 19.7421287,11.5625018 22.1601342,7.45318594 C21.4554006,7.03767997 20.9946431,6.50400258 20.7864087,6.04808961 C16.700974,8.36272469 12.6163163,10.6750726 8.53088162,12.9897077 C9.12450507,13.9914963 9.26203302,15.2227663 8.85721912,16.3541624 L14.9061178,19.7803712 L14.9061178,19.7803712 Z M23.5921342,8.18279917 L16.3023761,20.5717386 L21.2362883,23.3674457 C21.8330197,22.6866258 22.6566334,22.204029 23.5921342,22.0317274 L23.5921342,8.18279917 L23.5921342,8.18279917 Z M2.80909745,13.7925109 C2.11834975,14.9673636 2.52704862,16.4647098 3.72284245,17.1424801 C4.91941329,17.8202504 6.44698358,17.41923 7.1369543,16.2443773 C7.82770201,15.0710495 7.41822614,13.5729408 6.22165531,12.8959329 C5.02586147,12.2174002 3.49906817,12.6191831 2.80909745,13.7925109 Z M24.3559194,50.4142158 C25.7381918,50.4142158 26.8555092,49.3171275 26.8555092,47.961587 C26.8555092,46.6075712 25.7381918,45.5089582 24.3559194,45.5097206 C22.974424,45.5097206 21.8578835,46.6075712 21.8578835,47.961587 C21.8578835,49.3171275 22.975201,50.4142158 24.3559194,50.4142158 Z M45.9042953,38.2067267 C46.595043,37.0326364 46.1863441,35.5352902 44.9905503,34.8575199 C43.7939795,34.1797496 42.2664092,34.58077 41.5764384,35.7548603 C40.8856907,36.9289505 41.2951666,38.4270592 42.4917374,39.1040671 C43.6875313,39.7825998 45.2143246,39.3808169 45.9042953,38.2067267 L45.9042953,38.2067267 Z M45.9042953,13.7925109 C45.2143246,12.6191831 43.6875313,12.2174002 42.4917374,12.8959329 C41.2951666,13.5729408 40.8856907,15.0710495 41.5764384,16.2443773 C42.2664092,17.41923 43.7939795,17.8202504 44.9905503,17.1424801 C46.1863441,16.4647098 46.595043,14.9673636 45.9042953,13.7925109 L45.9042953,13.7925109 Z M24.3566964,1.58578424 C22.975201,1.58578424 21.8578835,2.68287247 21.8578835,4.03841304 C21.8578835,5.39319121 22.975201,6.49027945 24.3566964,6.49027945 C25.7381918,6.49027945 26.8555092,5.39319121 26.8555092,4.03841304 C26.8555092,2.68287247 25.7381918,1.58578424 24.3566964,1.58578424 Z M24.3566964,23.5481336 C22.975201,23.5481336 21.8578835,24.6444594 21.8578835,26 C21.8578835,27.3555406 22.975201,28.4518664 24.3566964,28.4518664 C25.7381918,28.4518664 26.8555092,27.3555406 26.8555092,26 C26.8555092,24.6444594 25.7381918,23.5481336 24.3566964,23.5481336 Z M2.80832046,38.2067267 C3.49906817,39.3808169 5.02586147,39.7825998 6.22165531,39.1040671 C7.41822614,38.4270592 7.82770201,36.9281881 7.1369543,35.7548603 C6.44620659,34.58077 4.91941329,34.180512 3.72284245,34.8575199 C2.52704862,35.5352902 2.11834975,37.0326364 2.80832046,38.2067267 Z" id="Shape"></path>
        </g>
    </g>
</svg>